<svg xmlns="http://www.w3.org/2000/svg" viewBox="0 0 800 560" fill="none">
  <defs>
    <linearGradient id="bg" x1="52" y1="18" x2="747" y2="544" gradientUnits="userSpaceOnUse">
      <stop stop-color="#172554"/>
      <stop offset=".54" stop-color="#1D4ED8"/>
      <stop offset="1" stop-color="#EF4444"/>
    </linearGradient>
    <linearGradient id="box" x1="205" y1="286" x2="607" y2="462" gradientUnits="userSpaceOnUse">
      <stop stop-color="#F87171"/>
      <stop offset="1" stop-color="#B91C1C"/>
    </linearGradient>
    <filter id="shadow" x="144" y="112" width="513" height="400" filterUnits="userSpaceOnUse">
      <feDropShadow dx="0" dy="24" stdDeviation="20" flood-color="#172554" flood-opacity=".34"/>
    </filter>
  </defs>
  <rect width="800" height="560" rx="32" fill="url(#bg)"/>
  <path d="M0 87C172 140 248 29 413 85C577 141 666 39 800 76V0H0V87Z" fill="#fff" fill-opacity=".08"/>
  <circle cx="112" cy="438" r="162" fill="#BFDBFE" fill-opacity=".1"/>
  <circle cx="706" cy="462" r="142" fill="#FECACA" fill-opacity=".1"/>
  <g filter="url(#shadow)">
    <path d="M309 284V237C309 204 336 177 369 177H431C464 177 491 204 491 237V284" stroke="#E2E8F0" stroke-width="24"/>
    <rect x="174" y="274" width="452" height="185" rx="31" fill="url(#box)" stroke="#FECACA" stroke-opacity=".55" stroke-width="4"/>
    <path d="M174 333H626" stroke="#7F1D1D" stroke-opacity=".45" stroke-width="5"/>
    <rect x="364" y="315" width="72" height="48" rx="13" fill="#FDE68A" stroke="#FEF3C7" stroke-width="4"/>
    <path d="M263 151C288 126 327 126 352 151L310 193L325 208L367 166C392 191 392 230 367 255C344 278 309 280 284 261L221 324L184 287L247 224C228 199 230 164 253 141L263 151Z" fill="#F8FAFC" fill-opacity=".96"/>
    <path d="M527 151L551 175L487 239L463 215L527 151Z" fill="#FDE68A"/>
    <path d="M543 134L568 159L553 174L528 149L543 134Z" fill="#F8FAFC"/>
    <path d="M471 230L447 263" stroke="#FDE68A" stroke-width="18" stroke-linecap="round"/>
  </g>
  <g fill="#fff" fill-opacity=".6">
    <circle cx="129" cy="125" r="8"/>
    <circle cx="679" cy="154" r="12"/>
  </g>
</svg>
