<svg xmlns="http://www.w3.org/2000/svg" viewBox="0 0 800 560" fill="none">
  <defs>
    <linearGradient id="bg" x1="54" y1="18" x2="742" y2="544" gradientUnits="userSpaceOnUse">
      <stop stop-color="#1E293B"/>
      <stop offset=".55" stop-color="#334155"/>
      <stop offset="1" stop-color="#3B6FE8"/>
    </linearGradient>
    <linearGradient id="home" x1="255" y1="186" x2="541" y2="450" gradientUnits="userSpaceOnUse">
      <stop stop-color="#F8FAFC"/>
      <stop offset="1" stop-color="#DBEAFE"/>
    </linearGradient>
    <filter id="shadow" x="170" y="96" width="465" height="423" filterUnits="userSpaceOnUse">
      <feDropShadow dx="0" dy="24" stdDeviation="20" flood-color="#0F172A" flood-opacity=".32"/>
    </filter>
  </defs>
  <rect width="800" height="560" rx="32" fill="url(#bg)"/>
  <circle cx="700" cy="82" r="148" fill="#93C5FD" fill-opacity=".12"/>
  <circle cx="93" cy="481" r="170" fill="#C7D2FE" fill-opacity=".1"/>
  <g stroke="#fff" stroke-opacity=".09" stroke-width="2">
    <path d="M54 111H244M556 111H746"/>
    <path d="M54 449H222M578 449H746"/>
  </g>
  <g filter="url(#shadow)">
    <path d="M400 122L597 276H558V446H242V276H203L400 122Z" fill="url(#home)" stroke="#fff" stroke-width="5" stroke-linejoin="round"/>
    <rect x="292" y="302" width="86" height="144" rx="12" fill="#3B6FE8" fill-opacity=".25"/>
    <rect x="430" y="302" width="78" height="75" rx="12" fill="#BFDBFE" stroke="#93C5FD" stroke-width="5"/>
    <path d="M469 303V376M431 339H507" stroke="#fff" stroke-opacity=".9" stroke-width="5"/>
    <path d="M488 176C516 148 560 148 588 176L542 222L559 239L605 193C633 221 633 265 605 293C579 319 539 321 511 300L405 406L360 361L466 255C445 227 447 187 473 161L488 176Z" fill="#22C55E" stroke="#ECFDF5" stroke-width="6"/>
  </g>
</svg>
