<svg xmlns="http://www.w3.org/2000/svg" viewBox="0 0 800 560" fill="none">
  <defs>
    <linearGradient id="bg" x1="60" y1="24" x2="730" y2="540" gradientUnits="userSpaceOnUse">
      <stop stop-color="#173E8F"/>
      <stop offset="1" stop-color="#0EA5B7"/>
    </linearGradient>
    <linearGradient id="metal" x1="287" y1="174" x2="510" y2="402" gradientUnits="userSpaceOnUse">
      <stop stop-color="#F8FAFC"/>
      <stop offset="1" stop-color="#BFDBFE"/>
    </linearGradient>
    <filter id="shadow" x="170" y="112" width="460" height="360" filterUnits="userSpaceOnUse">
      <feDropShadow dx="0" dy="20" stdDeviation="20" flood-color="#072A50" flood-opacity=".28"/>
    </filter>
  </defs>
  <rect width="800" height="560" rx="32" fill="url(#bg)"/>
  <circle cx="718" cy="84" r="130" fill="#67E8F9" fill-opacity=".15"/>
  <circle cx="92" cy="502" r="170" fill="#BFDBFE" fill-opacity=".12"/>
  <path d="M0 112C159 37 250 148 404 83C552 21 643 6 800 72" stroke="#fff" stroke-opacity=".09" stroke-width="2"/>
  <g filter="url(#shadow)">
    <rect x="194" y="128" width="412" height="304" rx="44" fill="#fff" fill-opacity=".14" stroke="#fff" stroke-opacity=".24" stroke-width="2"/>
    <path d="M270 342V249C270 225 289 206 313 206H385" stroke="url(#metal)" stroke-width="34" stroke-linecap="round"/>
    <path d="M385 206H477C506 206 530 230 530 259V294" stroke="#E0F2FE" stroke-width="34" stroke-linecap="round"/>
    <path d="M244 357H296" stroke="#7DD3FC" stroke-width="42" stroke-linecap="round"/>
    <path d="M504 311H556" stroke="#7DD3FC" stroke-width="42" stroke-linecap="round"/>
    <path d="M372 172H426" stroke="#F8FAFC" stroke-width="18" stroke-linecap="round"/>
    <path d="M399 146V198" stroke="#F8FAFC" stroke-width="18" stroke-linecap="round"/>
    <path d="M520 350C520 350 492 382 492 402C492 418 505 430 520 430C535 430 548 418 548 402C548 382 520 350 520 350Z" fill="#67E8F9" stroke="#ECFEFF" stroke-width="5"/>
  </g>
  <g fill="#fff">
    <circle cx="115" cy="122" r="7" fill-opacity=".75"/>
    <circle cx="682" cy="433" r="10" fill-opacity=".45"/>
    <circle cx="724" cy="393" r="5" fill-opacity=".7"/>
  </g>
</svg>
