<svg xmlns="http://www.w3.org/2000/svg" viewBox="0 0 640 640" fill="none">
  <defs>
    <linearGradient id="bg" x1="34" y1="20" x2="608" y2="620" gradientUnits="userSpaceOnUse">
      <stop stop-color="#134E4A"/>
      <stop offset="1" stop-color="#1E3A8A"/>
    </linearGradient>
    <linearGradient id="shirt" x1="132" y1="444" x2="508" y2="640" gradientUnits="userSpaceOnUse">
      <stop stop-color="#A855F7"/>
      <stop offset="1" stop-color="#6B21A8"/>
    </linearGradient>
  </defs>
  <rect width="640" height="640" rx="40" fill="url(#bg)"/>
  <circle cx="320" cy="274" r="228" fill="#99F6E4" fill-opacity=".12"/>
  <circle cx="102" cy="116" r="72" stroke="#fff" stroke-opacity=".11" stroke-width="3"/>
  <circle cx="548" cy="505" r="104" stroke="#fff" stroke-opacity=".1" stroke-width="3"/>
  <path d="M105 640C119 503 199 423 320 423C441 423 521 503 535 640H105Z" fill="url(#shirt)"/>
  <path d="M264 405V456C264 489 289 512 320 512C351 512 376 489 376 456V405H264Z" fill="#C7835E"/>
  <ellipse cx="320" cy="298" rx="113" ry="140" fill="#D38E65"/>
  <path d="M206 284C193 219 213 169 264 139C321 106 397 128 430 183C450 217 447 266 430 302C411 249 374 218 320 218C269 218 234 241 206 284Z" fill="#201B1D"/>
  <path d="M235 160C277 118 343 111 397 145C353 137 320 157 299 194C281 175 259 164 235 160Z" fill="#33282A"/>
  <path d="M209 276C194 275 184 290 188 312C191 334 204 347 220 340L209 276ZM431 276C446 275 456 290 452 312C449 334 436 347 420 340L431 276Z" fill="#D38E65"/>
  <path d="M272 306C285 297 298 297 311 306M349 306C362 297 375 297 388 306" stroke="#321E18" stroke-width="7" stroke-linecap="round"/>
  <path d="M295 365C312 377 331 377 348 365" stroke="#8A4B49" stroke-width="8" stroke-linecap="round"/>
  <path d="M247 438L320 512L393 438L423 471L379 640H261L217 471L247 438Z" fill="#FAF5FF" fill-opacity=".95"/>
  <path d="M255 446L320 512L385 446L408 470L320 550L232 470L255 446Z" fill="#E9D5FF"/>
  <circle cx="438" cy="537" r="38" fill="#14B8A6" stroke="#CCFBF1" stroke-width="6"/>
  <path d="M419 537L431 549L457 522" stroke="#fff" stroke-width="10" stroke-linecap="round" stroke-linejoin="round"/>
</svg>
